<mxfile host="app.diagrams.net" modified="2021-02-03T23:22:22.474Z" agent="5.0 (Windows)" etag="r-K6vaLddqcHWoS_e5Ih" version="14.2.9" type="github">
  <diagram name="Page-1" id="e7e014a7-5840-1c2e-5031-d8a46d1fe8dd">
    <mxGraphModel dx="1038" dy="627" grid="1" gridSize="10" guides="1" tooltips="1" connect="1" arrows="1" fold="1" page="1" pageScale="1" pageWidth="1169" pageHeight="826" background="#ffffff" math="0" shadow="0">
      <root>
        <mxCell id="0" />
        <mxCell id="1" parent="0" />
        <mxCell id="2" value="Thread 1" style="swimlane;whiteSpace=wrap" parent="1" vertex="1">
          <mxGeometry x="40" y="120" width="920" height="570" as="geometry" />
        </mxCell>
        <mxCell id="5" value="" style="ellipse;shape=startState;fillColor=#d5e8d4;strokeColor=#82b366;" parent="2" vertex="1">
          <mxGeometry x="150" y="50" width="30" height="30" as="geometry" />
        </mxCell>
        <mxCell id="6" value="" style="edgeStyle=elbowEdgeStyle;elbow=horizontal;verticalAlign=bottom;endArrow=open;endSize=8;strokeColor=#FF0000;endFill=1;rounded=0" parent="2" edge="1">
          <mxGeometry x="150" y="50" as="geometry">
            <mxPoint x="165" y="120" as="targetPoint" />
            <mxPoint x="165" y="80" as="sourcePoint" />
          </mxGeometry>
        </mxCell>
        <mxCell id="iQ8vg3276LxUxDU0NRJX-45" style="edgeStyle=orthogonalEdgeStyle;rounded=0;orthogonalLoop=1;jettySize=auto;html=1;" parent="2" target="iQ8vg3276LxUxDU0NRJX-44" edge="1">
          <mxGeometry relative="1" as="geometry">
            <mxPoint x="165" y="170" as="sourcePoint" />
          </mxGeometry>
        </mxCell>
        <mxCell id="iQ8vg3276LxUxDU0NRJX-41" value="Acces Website" style="text;html=1;align=center;verticalAlign=middle;resizable=0;points=[];autosize=1;" parent="2" vertex="1">
          <mxGeometry x="175.5" y="80" width="90" height="20" as="geometry" />
        </mxCell>
        <mxCell id="iQ8vg3276LxUxDU0NRJX-50" style="edgeStyle=orthogonalEdgeStyle;rounded=0;orthogonalLoop=1;jettySize=auto;html=1;entryX=0;entryY=0.5;entryDx=0;entryDy=0;" parent="2" source="iQ8vg3276LxUxDU0NRJX-44" edge="1">
          <mxGeometry relative="1" as="geometry">
            <Array as="points">
              <mxPoint x="90" y="262" />
              <mxPoint x="90" y="145" />
            </Array>
            <mxPoint x="110" y="145" as="targetPoint" />
          </mxGeometry>
        </mxCell>
        <mxCell id="iQ8vg3276LxUxDU0NRJX-44" value="&lt;div&gt;Verify&lt;/div&gt;&lt;div&gt;Log in&lt;/div&gt;&lt;div&gt;Details&lt;br&gt;&lt;/div&gt;" style="rhombus;whiteSpace=wrap;html=1;" parent="2" vertex="1">
          <mxGeometry x="125" y="222" width="80" height="80" as="geometry" />
        </mxCell>
        <mxCell id="iQ8vg3276LxUxDU0NRJX-55" value="Invalid" style="text;html=1;strokeColor=none;fillColor=none;align=center;verticalAlign=middle;whiteSpace=wrap;rounded=0;" parent="2" vertex="1">
          <mxGeometry x="40" y="180" width="40" height="20" as="geometry" />
        </mxCell>
        <mxCell id="EWu68PI4Sx2wkMDCkliy-10" value="Home Page" style="rounded=1;whiteSpace=wrap;html=1;" vertex="1" parent="2">
          <mxGeometry x="105" y="360" width="120" height="60" as="geometry" />
        </mxCell>
        <mxCell id="EWu68PI4Sx2wkMDCkliy-11" value="Login" style="rounded=1;whiteSpace=wrap;html=1;" vertex="1" parent="2">
          <mxGeometry x="110" y="120" width="120" height="60" as="geometry" />
        </mxCell>
        <mxCell id="EWu68PI4Sx2wkMDCkliy-13" value="&lt;div&gt;Upload&lt;/div&gt;&lt;div&gt;Questions&lt;br&gt;&lt;/div&gt;" style="rhombus;whiteSpace=wrap;html=1;" vertex="1" parent="2">
          <mxGeometry x="300" y="100" width="80" height="80" as="geometry" />
        </mxCell>
        <mxCell id="EWu68PI4Sx2wkMDCkliy-14" style="edgeStyle=orthogonalEdgeStyle;rounded=0;orthogonalLoop=1;jettySize=auto;html=1;exitX=0.5;exitY=1;exitDx=0;exitDy=0;entryX=1;entryY=0.75;entryDx=0;entryDy=0;" edge="1" parent="2">
          <mxGeometry relative="1" as="geometry">
            <mxPoint x="225" y="400" as="targetPoint" />
            <mxPoint x="340" y="175" as="sourcePoint" />
            <Array as="points">
              <mxPoint x="340" y="400" />
            </Array>
          </mxGeometry>
        </mxCell>
        <mxCell id="EWu68PI4Sx2wkMDCkliy-15" value="No" style="text;html=1;strokeColor=none;fillColor=none;align=center;verticalAlign=middle;whiteSpace=wrap;rounded=0;" vertex="1" parent="2">
          <mxGeometry x="300" y="283" width="40" height="20" as="geometry" />
        </mxCell>
        <mxCell id="EWu68PI4Sx2wkMDCkliy-25" style="edgeStyle=orthogonalEdgeStyle;rounded=0;orthogonalLoop=1;jettySize=auto;html=1;exitX=1;exitY=0.5;exitDx=0;exitDy=0;" edge="1" parent="2" source="EWu68PI4Sx2wkMDCkliy-17" target="EWu68PI4Sx2wkMDCkliy-24">
          <mxGeometry relative="1" as="geometry" />
        </mxCell>
        <mxCell id="EWu68PI4Sx2wkMDCkliy-17" value="&lt;div&gt;Browse&lt;/div&gt;&lt;div&gt;Computer&lt;/div&gt;&lt;div&gt;for&lt;/div&gt;&lt;div&gt;File&lt;br&gt;&lt;/div&gt;" style="rhombus;whiteSpace=wrap;html=1;" vertex="1" parent="2">
          <mxGeometry x="440" y="100" width="80" height="80" as="geometry" />
        </mxCell>
        <mxCell id="EWu68PI4Sx2wkMDCkliy-16" style="edgeStyle=orthogonalEdgeStyle;rounded=0;orthogonalLoop=1;jettySize=auto;html=1;exitX=1;exitY=0.5;exitDx=0;exitDy=0;" edge="1" parent="2" source="EWu68PI4Sx2wkMDCkliy-13" target="EWu68PI4Sx2wkMDCkliy-17">
          <mxGeometry relative="1" as="geometry">
            <mxPoint x="430" y="140" as="targetPoint" />
          </mxGeometry>
        </mxCell>
        <mxCell id="EWu68PI4Sx2wkMDCkliy-22" value="Cancel" style="text;html=1;strokeColor=none;fillColor=none;align=center;verticalAlign=middle;whiteSpace=wrap;rounded=0;" vertex="1" parent="2">
          <mxGeometry x="430" y="283" width="40" height="20" as="geometry" />
        </mxCell>
        <mxCell id="EWu68PI4Sx2wkMDCkliy-12" style="edgeStyle=orthogonalEdgeStyle;rounded=0;orthogonalLoop=1;jettySize=auto;html=1;entryX=0;entryY=0.5;entryDx=0;entryDy=0;exitX=1;exitY=0.25;exitDx=0;exitDy=0;" edge="1" parent="2" source="EWu68PI4Sx2wkMDCkliy-10" target="EWu68PI4Sx2wkMDCkliy-13">
          <mxGeometry relative="1" as="geometry">
            <mxPoint x="260" y="150" as="targetPoint" />
            <mxPoint x="250" y="360" as="sourcePoint" />
          </mxGeometry>
        </mxCell>
        <mxCell id="EWu68PI4Sx2wkMDCkliy-24" value="&lt;div&gt;Preview &lt;br&gt;&lt;/div&gt;&lt;div&gt;of&lt;/div&gt;&lt;div&gt;Questions&lt;br&gt;&lt;/div&gt;" style="rounded=1;whiteSpace=wrap;html=1;" vertex="1" parent="2">
          <mxGeometry x="545" y="232" width="120" height="60" as="geometry" />
        </mxCell>
        <mxCell id="EWu68PI4Sx2wkMDCkliy-26" value="Upload Questions" style="text;html=1;strokeColor=none;fillColor=none;align=center;verticalAlign=middle;whiteSpace=wrap;rounded=0;" vertex="1" parent="2">
          <mxGeometry x="545" y="110" width="40" height="20" as="geometry" />
        </mxCell>
        <mxCell id="iQ8vg3276LxUxDU0NRJX-56" style="edgeStyle=orthogonalEdgeStyle;rounded=0;orthogonalLoop=1;jettySize=auto;html=1;" parent="1" source="iQ8vg3276LxUxDU0NRJX-44" edge="1">
          <mxGeometry relative="1" as="geometry">
            <mxPoint x="205" y="480" as="targetPoint" />
          </mxGeometry>
        </mxCell>
        <mxCell id="EWu68PI4Sx2wkMDCkliy-20" value="" style="endArrow=none;html=1;entryX=0.5;entryY=1;entryDx=0;entryDy=0;" edge="1" parent="1" target="EWu68PI4Sx2wkMDCkliy-17">
          <mxGeometry width="50" height="50" relative="1" as="geometry">
            <mxPoint x="520" y="520" as="sourcePoint" />
            <mxPoint x="550" y="440" as="targetPoint" />
          </mxGeometry>
        </mxCell>
        <mxCell id="EWu68PI4Sx2wkMDCkliy-21" value="" style="endArrow=none;html=1;" edge="1" parent="1">
          <mxGeometry width="50" height="50" relative="1" as="geometry">
            <mxPoint x="520" y="520" as="sourcePoint" />
            <mxPoint x="380" y="520" as="targetPoint" />
          </mxGeometry>
        </mxCell>
      </root>
    </mxGraphModel>
  </diagram>
</mxfile>
